<?xml version="1.0" standalone="no"?>
<!DOCTYPE svg PUBLIC "-//W3C//DTD SVG 20010904//EN"
 "http://www.w3.org/TR/2001/REC-SVG-20010904/DTD/svg10.dtd">
<svg version="1.0" xmlns="http://www.w3.org/2000/svg"
 width="1204.000000pt" height="1280.000000pt" viewBox="0 0 1204.000000 1280.000000"
 preserveAspectRatio="xMidYMid meet">
<metadata>
Created by potrace 1.15, written by Peter Selinger 2001-2017
</metadata>
<g transform="translate(0.000000,1280.000000) scale(0.100000,-0.100000)"
fill="#ff5722" stroke="none">
<path d="M312 12463 c-83 -646 -262 -2039 -287 -2229 -29 -226 -28 -204 -11
-204 8 0 211 -45 451 -100 241 -56 440 -99 442 -96 6 5 313 2769 309 2774 -2
2 -851 192 -859 192 -1 0 -21 -152 -45 -337z m363 -1976 c22 -13 49 -40 62
-62 94 -166 -137 -327 -273 -191 -136 136 42 349 211 253z"/>
<path d="M1388 12563 c-74 -4 -77 -5 -82 -31 -9 -43 -227 -1854 -224 -1857 2
-1 53 -30 113 -65 61 -34 209 -126 330 -203 622 -396 779 -491 1013 -607 279
-139 433 -196 737 -270 283 -69 581 -163 1095 -346 l235 -83 290 -31 c160 -17
415 -44 569 -60 153 -17 289 -30 302 -30 18 0 31 13 54 52 53 94 49 186 -13
310 -46 93 -187 231 -292 285 -99 51 -105 53 -458 113 -169 28 -296 54 -305
63 -10 7 -186 157 -392 332 -206 175 -414 352 -462 393 l-87 73 70 109 c131
204 230 263 509 305 120 19 671 32 812 21 l86 -8 388 -319 c214 -176 397 -328
406 -337 16 -16 16 -24 2 -117 -60 -398 -66 -720 -18 -953 25 -124 85 -324
107 -361 l20 -34 -34 7 c-19 4 -99 10 -179 13 -125 4 -157 2 -233 -16 -335
-80 -597 -329 -687 -654 -44 -159 -46 -328 -4 -490 27 -106 75 -226 115 -287
21 -33 39 -62 39 -64 0 -2 -48 -6 -107 -10 -694 -45 -1460 -212 -2060 -449
l-112 -45 -17 55 c-74 235 -341 405 -754 479 -94 16 -362 45 -368 39 -2 -2 25
-43 60 -92 120 -168 187 -327 208 -500 19 -148 -3 -298 -71 -511 l-40 -123
-94 -97 c-289 -300 -493 -609 -660 -999 -82 -191 -129 -267 -230 -369 -98
-100 -179 -148 -305 -181 -72 -19 -332 -25 -512 -10 l-98 7 0 -694 0 -694 97
-91 c375 -346 693 -491 1108 -504 l69 -2 93 -170 c303 -553 579 -934 807
-1115 42 -33 56 -50 53 -65 -2 -11 -104 -274 -226 -585 -123 -311 -233 -593
-246 -628 l-24 -62 577 1 577 1 307 348 308 349 47 -15 c186 -57 474 -118 698
-148 451 -61 1024 -67 1615 -16 249 22 580 60 863 100 75 11 148 20 162 20
l25 0 0 -320 0 -320 575 0 575 0 442 662 443 663 95 67 c394 280 753 696 1033
1200 305 546 468 1095 510 1718 1 19 7 34 12 33 6 -1 62 -22 125 -46 64 -24
128 -47 143 -51 28 -7 28 -6 22 31 -5 38 -5 38 6 8 7 -16 16 -35 21 -42 6 -7
4 -12 -5 -15 -12 -2 -7 -34 24 -168 58 -250 57 -249 58 -41 l1 184 38 -7 c211
-36 288 -30 427 39 151 74 330 224 409 343 147 223 165 484 49 721 -78 160
-238 300 -403 352 -304 96 -566 -64 -650 -394 -35 -140 -53 -435 -31 -528 l8
-36 -136 67 -136 67 -18 107 c-78 458 -261 822 -584 1157 -228 236 -490 427
-828 605 -540 283 -1537 556 -2427 665 l-97 11 51 76 c67 100 103 181 134 305
103 413 -41 792 -395 1037 l-33 23 28 15 c16 8 73 44 127 79 l97 65 0 47 c1
25 22 392 49 816 l47 769 -289 601 c-159 330 -307 642 -328 693 -47 114 -86
170 -153 221 -136 104 -326 164 -731 230 -179 29 -217 32 -645 51 -493 22
-940 49 -1640 100 -300 22 -619 44 -710 50 -182 11 -761 20 -882 13z m10257
-7236 c50 -55 75 -121 82 -217 9 -133 -31 -255 -110 -330 -133 -129 -313 -191
-471 -161 -42 8 -62 8 -66 1 -4 -7 -12 -5 -21 6 -12 16 -12 17 3 12 21 -9 25
12 39 237 22 350 75 449 263 489 91 20 129 23 191 14 42 -6 56 -14 90 -51z
m-9654 -104 c71 -23 149 -98 172 -167 35 -104 15 -212 -56 -292 -57 -65 -123
-94 -212 -94 -156 1 -272 107 -283 261 -7 95 17 159 82 225 81 81 183 104 297
67z m9055 -989 c-4 -13 -13 -24 -21 -24 -17 0 -20 17 -4 22 5 2 13 24 17 48 7
43 7 44 10 11 2 -19 1 -44 -2 -57z"/>
</g>
</svg>
